<?xml version="1.0" encoding="UTF-8" standalone="no"?>
<svg
   xmlns:dc="http://purl.org/dc/elements/1.1/"
   xmlns:cc="http://creativecommons.org/ns#"
   xmlns:rdf="http://www.w3.org/1999/02/22-rdf-syntax-ns#"
   xmlns:svg="http://www.w3.org/2000/svg"
   xmlns="http://www.w3.org/2000/svg"
   xmlns:sodipodi="http://sodipodi.sourceforge.net/DTD/sodipodi-0.dtd"
   xmlns:inkscape="http://www.inkscape.org/namespaces/inkscape"
   height="128px"
   viewBox="0 0 128 128"
   width="128px"
   version="1.1"
   id="svg164"
   sodipodi:docname="logo.svg"
   inkscape:version="1.0.1 (0767f8302a, 2020-10-17)">
  <metadata
     id="metadata170">
    <rdf:RDF>
      <cc:Work
         rdf:about="">
        <dc:format>image/svg+xml</dc:format>
        <dc:type
           rdf:resource="http://purl.org/dc/dcmitype/StillImage" />
        <dc:title></dc:title>
      </cc:Work>
    </rdf:RDF>
  </metadata>
  <defs
     id="defs168" />
  <sodipodi:namedview
     pagecolor="#ffffff"
     bordercolor="#666666"
     borderopacity="1"
     objecttolerance="10"
     gridtolerance="10"
     guidetolerance="10"
     inkscape:pageopacity="0"
     inkscape:pageshadow="2"
     inkscape:window-width="1920"
     inkscape:window-height="1016"
     id="namedview166"
     showgrid="false"
     inkscape:zoom="3.2003032"
     inkscape:cx="61.186813"
     inkscape:cy="64"
     inkscape:window-x="0"
     inkscape:window-y="27"
     inkscape:window-maximized="1"
     inkscape:current-layer="svg164" />
  <linearGradient
     id="a"
     gradientUnits="userSpaceOnUse"
     x1="43.172993"
     x2="91.66568"
     y1="21.40773"
     y2="104.889435"
     gradientTransform="matrix(2,0,0,2,-64,-65)">
    <stop
       offset="0"
       stop-color="#ffa348"
       id="stop130" />
    <stop
       offset="1"
       stop-color="#e66100"
       id="stop132" />
  </linearGradient>
  <filter
     id="b"
     height="100%"
     width="100%"
     x="0%"
     y="0%">
    <feColorMatrix
       in="SourceGraphic"
       type="matrix"
       values="0 0 0 0 1 0 0 0 0 1 0 0 0 0 1 0 0 0 1 0"
       id="feColorMatrix135" />
  </filter>
  <mask
     id="c">
    <g
       filter="url(#b)"
       id="g140">
      <rect
         fill-opacity="0.1"
         height="128"
         width="128"
         id="rect138" />
    </g>
  </mask>
  <clipPath
     id="d">
    <rect
       height="152"
       width="192"
       id="rect143" />
  </clipPath>
  <path
     d="M 184,67 C 184,133.27344 130.27344,187 64,187 -2.273438,187 -56,133.27344 -56,67 -56,0.726562 -2.273438,-53 64,-53 130.27344,-53 184,0.726562 184,67 Z m 0,0"
     fill="#d5d3cf"
     id="path146"
     style="stroke-width:2" />
  <path
     d="m 64,-49 c 61.85938,0 112,50.148438 112,112 v 4 C 176,128.85938 125.85938,179 64,179 2.140624,179 -48,128.85938 -48,67 V 63 C -48,1.148438 2.140624,-49 64,-49 Z m 0,0"
     fill="#d5d3cf"
     id="path148"
     style="stroke-width:2" />
  <path
     d="M 184,63 C 184,129.27344 130.27344,183 64,183 -2.273438,183 -56,129.27344 -56,63 -56,-3.273438 -2.273438,-57 64,-57 c 66.27344,0 120,53.726562 120,120 z m 0,0"
     fill="#f6f5f4"
     id="path150"
     style="stroke-width:2" />
  <path
     d="M 172,63 C 172,122.64844 123.64844,171 64,171 4.351562,171 -44,122.64844 -44,63 -44,3.351562 4.351562,-45 64,-45 123.64844,-45 172,3.351562 172,63 Z m 0,0"
     fill="url(#a)"
     id="path152"
     style="fill:url(#a);stroke-width:2" />
  <g
     clip-path="url(#d)"
     mask="url(#c)"
     transform="matrix(2,0,0,2,-80,-97)"
     id="g156">
    <path
       d="m 72,26 c -29.824219,0 -54,24.175781 -54,54 0.0078,0.390625 0.02344,0.78125 0.04297,1.171875 C 18.496094,51.6875 42.511719,28.019531 72,28 c 29.35547,0.01563 53.32031,23.480469 53.95703,52.828125 C 125.97266,80.554688 125.98828,80.277344 126,80 126,50.175781 101.82422,26 72,26 Z m 0,0"
       id="path154" />
  </g>
  <g
     fill="#ffffff"
     id="g162"
     transform="matrix(2,0,0,2,-64,-65)">
    <path
       d="m 87.851562,67.363281 -1.492187,1.027344 C 74.003906,76.902344 55.089844,83.652344 37.488281,83.28125 c 2.492188,9.789062 12.417969,16.398438 12.925781,16.72266 0.332032,0.21093 2.664063,1.5039 13.355469,1.5039 10.6875,0 13.382813,-1.29297 13.710938,-1.5039 C 78.097656,99.613281 92.488281,90.132812 90.871094,76.773438 90.5,73.722656 89.359375,70.5625 87.851562,67.363281 Z m 0,0"
       id="path158" />
    <path
       d="m 55.574219,28.496094 c -1.132813,0 -2.050781,0.941406 -2.050781,2.109375 v 8.441406 c 0,4.792969 -3.867188,11.484375 -7.601563,17.820313 -3.949219,6.691406 -8.035156,13.613281 -8.804687,20.046874 -0.09375,0.785157 -0.121094,1.550782 -0.113282,2.304688 24.628906,0.886719 46.445313,-14.039062 46.679688,-14.203125 l 1.875,-1.304687 C 84.324219,61.421875 82.984375,59.132812 81.648438,56.867188 77.910156,50.53125 74.046875,43.839844 74.046875,39.046875 v -8.441406 c 0,-1.167969 -0.921875,-2.109375 -2.054687,-2.109375 z m 0,0"
       id="path160" />
  </g>
</svg>
